HIERARCHY
ROOT Hips
{
	OFFSET -3.958830 18.904000 13.208200
	CHANNELS 6 Xposition Yposition Zposition Zrotation Yrotation Xrotation 
	JOINT LHipJoint
	{
		OFFSET 0.000000 0.000000 0.000000
		CHANNELS 3 Zrotation Yrotation Xrotation
		JOINT LeftUpLeg
		{
			OFFSET 1.800000 -1.400000 0.085000
			CHANNELS 3 Zrotation Yrotation Xrotation
			JOINT LeftLeg
			{
				OFFSET 2.215000 -6.000000 0.000000
				CHANNELS 3 Zrotation Yrotation Xrotation
				JOINT LeftFoot
				{
					OFFSET 2.500000 -6.900000 0.000000
					CHANNELS 3 Zrotation Yrotation Xrotation
					JOINT LeftToeBase
					{
						OFFSET 0.200000 -0.500000 1.950000
						CHANNELS 3 Zrotation Yrotation Xrotation
						End Site
						{
							OFFSET 0.000000 0.000000 0.000000
						}
					}
				}
			}
		}
	}
	JOINT RHipJoint
	{
		OFFSET 0.000000 0.000000 0.000000
		CHANNELS 3 Zrotation Yrotation Xrotation
		JOINT RightUpLeg
		{
			OFFSET -1.800000 -1.400000 0.085000
			CHANNELS 3 Zrotation Yrotation Xrotation
			JOINT RightLeg
			{
				OFFSET -2.215000 -6.000000 0.000000
				CHANNELS 3 Zrotation Yrotation Xrotation
				JOINT RightFoot
				{
					OFFSET -2.500000 -6.900000 0.000000
					CHANNELS 3 Zrotation Yrotation Xrotation
					JOINT RightToeBase
					{
						OFFSET -0.200000 -0.500000 1.950000
						CHANNELS 3 Zrotation Yrotation Xrotation
						End Site
						{
							OFFSET 0.000000 0.000000 0.000000
						}
					}
				}
			}
		}
	}
	JOINT LowerBack
	{
		OFFSET 0.000000 0.000000 0.000000
		CHANNELS 3 Zrotation Yrotation Xrotation
		JOINT Spine
		{
			OFFSET -0.087000 1.940000 -0.288900
			CHANNELS 3 Zrotation Yrotation Xrotation
			JOINT Spine1
			{
				OFFSET 0.000000 1.950000 0.060000
				CHANNELS 3 Zrotation Yrotation Xrotation
				JOINT Neck
				{
					OFFSET 0.000000 0.000000 0.000000
					CHANNELS 3 Zrotation Yrotation Xrotation
					JOINT Neck1
					{
						OFFSET 0.000000 1.600000 0.340000
						CHANNELS 3 Zrotation Yrotation Xrotation
						JOINT Head
						{
							OFFSET 0.000000 1.667000 -0.240000
							CHANNELS 3 Zrotation Yrotation Xrotation
							End Site
							{
								OFFSET 0.000000 0.000000 0.000000
							}
						}
					}
				}
				JOINT LeftShoulder
				{
					OFFSET 0.000000 0.000000 0.000000
					CHANNELS 3 Zrotation Yrotation Xrotation
					JOINT LeftArm
					{
						OFFSET 2.700000 1.550000 -0.730000
						CHANNELS 3 Zrotation Yrotation Xrotation
						JOINT LeftForeArm
						{
							OFFSET 5.450000 0.000000 0.000000
							CHANNELS 3 Zrotation Yrotation Xrotation
							JOINT LeftHand
							{
								OFFSET 3.450000 0.000000 0.000000
								CHANNELS 3 Zrotation Yrotation Xrotation
								JOINT LeftHandIndex1
								{
									OFFSET 0.750000 0.000000 0.000000
									CHANNELS 3 Zrotation Yrotation Xrotation
									End Site
									{
										OFFSET 0.000000 0.000000 0.000000
									}
								}
							}
						}
					}
				}
				JOINT RightShoulder
				{
					OFFSET 0.000000 0.000000 0.000000
					CHANNELS 3 Zrotation Yrotation Xrotation
					JOINT RightArm
					{
						OFFSET -2.700000 1.550000 -0.730000
						CHANNELS 3 Zrotation Yrotation Xrotation
						JOINT RightForeArm
						{
							OFFSET -5.450000 0.000000 0.000000
							CHANNELS 3 Zrotation Yrotation Xrotation
							JOINT RightHand
							{
								OFFSET -3.450000 0.000000 0.000000
								CHANNELS 3 Zrotation Yrotation Xrotation
								JOINT RightHandIndex1
								{
									OFFSET -0.750000 0.000000 0.000000
									CHANNELS 3 Zrotation Yrotation Xrotation
									End Site
									{
										OFFSET 0.000000 0.000000 0.000000
									}
								}
							}
						}
					}
				}
			}
		}
	}
}
MOTION
Frames: 10
Frame Time: 0.016667
-9.664780 16.558950 5.134500 -3.305049 -1.127730 -1.930114 -14.792046 12.975153 3.084648 3.475272 -0.224649 -3.315559 -7.215293 4.608716 4.282297 -0.783728 4.207423 3.454239 0.493040 0.033940 0.064410 18.590766 -11.451239 3.006908 -0.800747 -1.167985 -0.987973 1.385803 -4.470775 9.635702 -0.475821 -3.899612 3.485822 0.197290 0.486170 0.035040 -4.517314 -0.400342 -7.802253 14.982118 -1.126650 15.425784 -4.929141 1.223326 11.622107 -0.703150 -2.309587 -12.846643 -6.750614 -7.619221 36.832644 24.656890 -14.919430 -26.256970 -15.284814 -21.234421 7.856732 -33.489163 -15.368986 5.843468 -142.737531 -56.096808 102.885567 -3.549889 2.947125 0.963390 -0.007620 -0.125270 0.400520 16.536344 24.017034 9.703727 29.379860 15.765161 -0.547703 123.000035 56.635354 73.548994 2.009772 -1.292556 -0.515070 0.619910 0.019570 -0.210020 
-9.685760 16.557980 5.121220 -3.149453 0.244819 -1.938294 -14.787946 12.993725 3.052366 3.322003 -0.288366 -3.907053 -6.814485 4.578481 4.877232 -0.816419 4.153745 3.468694 0.475360 0.005230 0.049580 18.588242 -11.475887 3.021358 -0.716945 -1.154309 -1.102367 1.643231 -4.540836 9.801490 -0.462189 -3.914645 3.480775 0.186840 0.495790 0.037140 -4.544163 -0.369438 -7.800323 15.126895 -1.284105 15.619578 -5.356400 1.184113 11.082948 -0.635324 -2.194868 -12.775318 -6.531499 -7.774004 36.777023 24.636730 -15.356220 -25.879480 -14.795459 -20.662008 7.604226 -32.554301 -14.754611 5.483911 -140.053494 -56.305836 99.373184 -3.564213 2.960540 0.961950 0.000190 -0.141090 0.393150 15.844600 23.363200 9.635776 28.310313 15.036301 -0.654386 123.552020 56.491944 74.164635 1.996673 -1.301469 -0.523230 0.616000 0.037460 -0.213170 
-9.704840 16.557030 5.112910 -2.988694 1.706337 -1.810949 -14.779065 12.999651 3.022722 3.089690 -0.364092 -4.555222 -6.272945 4.484650 5.300493 -0.832200 4.052830 3.501031 0.464590 -0.004400 0.038410 18.590787 -11.511405 3.033610 -0.671870 -1.138574 -1.323666 1.872918 -4.580824 9.927514 -0.449674 -3.908904 3.482746 0.180480 0.499150 0.029400 -4.589299 -0.301666 -7.798498 15.268887 -1.453596 15.744807 -5.786860 1.114339 10.263708 -0.686748 -2.018644 -12.627325 -6.149911 -7.845580 36.619855 25.114880 -15.697030 -25.675680 -14.452236 -19.840187 7.329638 -31.485331 -13.739891 5.094503 -135.807069 -56.251879 93.672139 -3.569005 2.987802 0.951490 -0.001730 -0.149570 0.390140 15.502772 22.407973 9.440383 27.481494 14.255157 -0.686436 121.883540 56.589066 72.592665 2.015029 -1.308888 -0.522300 0.613940 0.040910 -0.206680 
-9.720410 16.558500 5.105070 -2.836192 2.951552 -1.912650 -14.762345 12.998921 3.006875 2.821853 -0.400627 -4.802344 -5.649969 4.362168 5.495645 -0.849162 3.973394 3.528511 0.456350 -0.023440 0.040380 18.600121 -11.551383 3.056915 -0.643009 -1.167568 -1.207044 1.945780 -4.622037 9.930878 -0.457886 -3.917722 3.475776 0.165690 0.493450 0.028550 -4.653096 -0.219529 -7.820046 15.693042 -1.634900 16.138063 -6.439925 1.152026 9.591927 -0.684003 -1.977379 -12.679586 -6.121771 -7.875490 37.072567 25.706530 -15.923950 -25.964130 -14.175144 -19.311231 7.202377 -30.364666 -12.521115 4.398830 -131.595550 -56.539628 88.457117 -3.567975 2.990544 0.967970 -0.013890 -0.144090 0.384140 15.131060 21.881113 9.479456 26.731199 13.297639 -1.059172 118.418638 56.873017 69.046219 2.044929 -1.300784 -0.525830 0.611410 0.044670 -0.210810 
-9.735710 16.561890 5.095760 -2.947985 3.717037 -2.140065 -14.742280 13.015633 2.986568 2.937648 -0.431222 -5.033341 -5.297209 4.331121 5.908190 -0.871457 3.938372 3.514386 0.453300 -0.042790 0.055680 18.607698 -11.583167 3.092400 -0.506337 -1.199889 -1.026474 2.223879 -4.733101 10.021092 -0.472761 -3.937913 3.450211 0.148810 0.458910 0.046280 -4.709810 -0.164885 -7.848251 16.502539 -1.815094 16.712871 -7.152941 1.285482 8.959946 -0.526341 -2.080305 -12.833648 -6.425420 -7.848366 37.908104 25.655400 -15.885570 -26.574340 -13.847987 -18.767549 7.097386 -29.388959 -11.163559 3.596983 -126.553597 -56.904844 82.499141 -3.569689 3.005300 0.996320 -0.032790 -0.124580 0.358400 14.417582 21.507497 9.629731 26.338537 12.288842 -1.629932 113.118117 57.332689 63.785932 2.078361 -1.292030 -0.516880 0.581560 0.057360 -0.229030 
-9.751330 16.560890 5.094490 -2.905284 4.303524 -2.193008 -14.745901 13.022731 2.998149 2.921844 -0.455972 -5.090966 -5.135914 4.270813 5.849505 -0.889208 3.908336 3.500261 0.480710 -0.034410 0.106220 18.595743 -11.596293 3.106241 -0.486245 -1.194307 -0.979342 2.417992 -4.811376 10.126814 -0.495580 -3.941277 3.428317 0.145330 0.402550 0.073460 -4.703293 -0.134641 -7.877574 16.818363 -1.727033 17.029712 -7.564486 1.546982 8.447362 -0.169893 -1.984890 -12.936431 -6.298235 -8.074941 38.368584 24.424620 -15.499390 -27.323220 -13.580428 -17.995389 6.890524 -28.717610 -9.892277 2.902128 -120.267839 -57.528862 75.982656 -3.564115 3.022469 1.029640 -0.054320 -0.090360 0.338100 13.390284 20.882820 9.802342 26.665371 11.204219 -2.163155 107.415581 58.032899 58.682770 2.101155 -1.291662 -0.498020 0.542310 0.047920 -0.258200 
-9.773840 16.566280 5.099450 -2.788317 4.668656 -2.277979 -14.746339 13.038377 3.017738 2.868614 -0.466900 -5.078642 -5.056624 4.252144 5.823340 -0.900078 3.898684 3.494959 0.471980 -0.062910 0.135780 18.584271 -11.608631 3.129746 -0.342907 -1.202295 -0.837458 2.266377 -4.804456 10.140507 -0.503977 -3.925342 3.420632 0.125480 0.369070 0.074840 -4.696238 -0.122006 -7.921782 16.993669 -1.694707 17.492187 -8.088463 1.837020 7.824281 0.073269 -2.079184 -13.267706 -6.478543 -7.914154 38.914392 23.618130 -15.209540 -27.611110 -13.602461 -17.496712 6.924112 -28.034269 -8.000133 1.928494 -113.098100 -58.310806 69.173302 -3.566623 3.003481 1.060870 -0.073660 -0.074270 0.312480 12.876678 20.724729 10.182454 26.670603 9.948217 -2.757545 102.113626 58.586862 54.253526 2.119732 -1.280712 -0.504490 0.527770 0.052660 -0.284450 
-9.795360 16.567550 5.079020 -2.165062 6.597487 -2.172143 -14.787383 13.076763 3.013865 2.231560 -0.562758 -5.967331 -4.744223 4.218474 6.572102 -0.929877 3.817768 3.514551 0.477370 -0.054260 0.140740 18.538261 -11.605782 3.113502 -0.637784 -1.161221 -1.046847 2.567242 -4.873160 10.277912 -0.500378 -3.922670 3.414521 0.129680 0.366250 0.082710 -4.625063 -0.195214 -7.913638 16.078412 -1.848389 18.117935 -7.979355 1.643290 7.059644 0.158705 -2.005889 -12.847327 -6.171721 -8.207931 37.720809 23.172170 -15.038950 -28.264110 -13.511266 -16.271821 6.344082 -27.409476 -7.557507 1.502149 -105.584347 -59.267150 63.284928 -3.576022 3.005178 1.060680 -0.073240 -0.071140 0.308050 12.568317 19.478045 9.916765 26.030870 8.968073 -2.907018 97.061789 58.776044 50.447370 2.106649 -1.304650 -0.499450 0.526560 0.056220 -0.284860 
-9.819340 16.576960 5.054980 -1.797398 8.453663 -2.302026 -14.817071 13.115526 2.999806 1.938813 -0.650355 -6.662813 -4.397010 4.181728 7.207752 -0.970646 3.767180 3.524364 0.483840 -0.055480 0.148430 18.506442 -11.588059 3.118855 -0.575047 -1.169777 -0.982317 2.622732 -4.891929 10.298540 -0.506165 -3.920357 3.407762 0.134870 0.358890 0.082810 -4.590037 -0.285652 -7.915367 15.720304 -1.904289 18.882238 -8.013045 1.647356 6.365626 0.227649 -2.135693 -12.345297 -6.479580 -8.333730 37.453917 23.280650 -15.024080 -29.112820 -13.823851 -15.068757 5.486666 -26.143789 -7.882843 1.302114 -97.406719 -59.969292 57.399520 -3.565999 3.002255 1.080820 -0.083630 -0.067360 0.304220 12.728604 18.297302 9.766856 24.844054 7.514669 -3.184886 92.448642 59.044315 47.409894 2.084017 -1.316323 -0.508660 0.531610 0.061350 -0.294940 
-9.836500 16.584100 5.039220 -1.828212 10.105892 -2.061741 -14.810625 13.114544 2.961645 1.849212 -0.803640 -7.706481 -3.976717 4.104356 7.798708 -1.021653 3.722183 3.553082 0.462650 -0.102860 0.141710 18.515438 -11.592034 3.127372 -0.247664 -1.113824 -1.383896 2.860776 -4.921636 10.453522 -0.483640 -3.899354 3.414218 0.123860 0.390980 0.077480 -4.660860 -0.263857 -7.885317 16.474430 -2.042522 18.910206 -8.621041 1.675002 5.670847 0.200671 -2.490647 -11.861653 -7.062995 -8.292271 36.721742 23.447920 -15.444000 -28.884310 -14.059712 -13.845725 4.722605 -25.324330 -7.958325 1.027622 -87.577700 -59.990965 50.222964 -3.559141 2.996433 1.089780 -0.074760 -0.093250 0.301090 12.930874 17.166658 9.664671 24.131991 6.049242 -3.434541 86.332855 59.099692 43.382257 2.042246 -1.338295 -0.539150 0.555410 0.082930 -0.300450 
